<svg width="40" height="40" viewBox="0 0 40 40" fill="none" xmlns="http://www.w3.org/2000/svg">
<rect width="40" height="40" rx="20" fill="white"/>
<path fill-rule="evenodd" clip-rule="evenodd" d="M25.7689 16.3818H30C30 12.9846 27.9644 11 24.5156 11H15.4844C12.0356 11 10 12.9846 10 16.3385V23.6615C10 27.0154 12.0356 29 15.4844 29H24.5156C27.9644 29 30 27.0154 30 23.6615V23.3495H25.7689C23.8052 23.3495 22.2133 21.7975 22.2133 19.883C22.2133 17.9685 23.8052 16.4165 25.7689 16.4165V16.3818ZM25.7689 17.8724H29.2533C29.6657 17.8724 30 18.1983 30 18.6004V21.131C29.9952 21.5311 29.6637 21.8543 29.2533 21.8589H25.8489C24.8548 21.872 23.9855 21.2084 23.76 20.2643C23.6471 19.6783 23.8056 19.0736 24.1931 18.6122C24.5805 18.1509 25.1573 17.8801 25.7689 17.8724ZM25.92 20.533H26.2489C26.6711 20.533 27.0133 20.1993 27.0133 19.7877C27.0133 19.3761 26.6711 19.0424 26.2489 19.0424H25.92C25.7181 19.0401 25.5236 19.1166 25.38 19.255C25.2364 19.3934 25.1555 19.5821 25.1556 19.779C25.1555 20.1921 25.4964 20.5282 25.92 20.533ZM14.7378 16.3818H20.3822C20.8044 16.3818 21.1467 16.0481 21.1467 15.6365C21.1467 15.2249 20.8044 14.8912 20.3822 14.8912H14.7378C14.319 14.8912 13.9782 15.2196 13.9733 15.6278C13.9733 16.0409 14.3142 16.3771 14.7378 16.3818Z" fill="#171215"/>
</svg>
